<svg width="365" height="82" viewBox="0 0 365 82" fill="none" xmlns="http://www.w3.org/2000/svg">
<g clip-path="url(#clip0_4711_53326)">
<path d="M128.08 61.6356L120.482 66.0244H92.3803V20.1716H120.482L128.08 24.5604V61.6356ZM101.551 28.0321V58.1639H118.909V28.0321H101.551ZM168.883 61.9632L161.284 66.3519H147.332L139.733 61.9632V37.3337L147.332 32.9449H161.284L168.883 37.3337V61.9632ZM148.707 40.6089V58.688H159.909V40.6089H148.707ZM188.847 40.9364V58.3604H205.092V66.0244H187.472L179.873 61.6356V37.6612L187.472 33.2724H205.092V40.9364H188.847ZM212.147 40.9364V33.2724H218.174V27.7701L227.148 22.5953V33.2724H234.353V40.9364H227.148V58.3604H234.353V66.0244H225.772L218.174 61.6356V40.9364H212.147ZM253.007 66.0244H244.033V18.2065H253.007V35.6306L257.657 32.9449H266.238L273.837 37.3337V66.0244H264.863V40.6089H253.007V66.0244ZM305.117 40.9364H293.85V66.0244H284.876V33.2724H292.278L293.85 35.9581L298.501 33.2724H305.117V40.9364ZM312.862 61.9632V33.2724H321.836V58.688H333.037V33.2724H342.011V66.3519H334.609L333.037 63.6663L328.386 66.3519H320.46L312.862 61.9632Z" fill="#525252"/>
<rect x="17.2148" y="10.2939" width="53.222" height="61.41" rx="4.094" fill="#262626"/>
<path d="M50.9917 30.7637L58.1562 39.7193L50.9917 48.6749" stroke="#FFC117" stroke-width="4.9128"/>
<path d="M36.6606 30.7637L29.4961 39.7193L36.6606 48.6749" stroke="#FFC117" stroke-width="4.9128"/>
</g>
<defs>
<clipPath id="clip0_4711_53326">
<rect width="363.911" height="81.88" fill="white" transform="translate(0.839844 0.0585938)"/>
</clipPath>
</defs>
</svg>
