<svg width="116" height="29" viewBox="0 0 116 29" fill="none" xmlns="http://www.w3.org/2000/svg">
<path d="M39.054 20.8877L36.4231 22.4072H26.6934V6.53123H36.4231L39.054 8.05079V20.8877ZM29.8686 9.25283V19.6856H35.8788V9.25283H29.8686ZM53.1814 21.0011L50.5505 22.5206H45.7197L43.0888 21.0011V12.4734L45.7197 10.9538H50.5505L53.1814 12.4734V21.0011ZM46.196 13.6074V19.8671H50.0743V13.6074H46.196ZM60.0939 13.7208V19.7537H65.7186V22.4072H59.6176L56.9868 20.8877V12.5868L59.6176 11.0672H65.7186V13.7208H60.0939ZM68.1613 13.7208V11.0672H70.2479V9.16211L73.3551 7.37039V11.0672H75.8499V13.7208H73.3551V19.7537H75.8499V22.4072H72.8788L70.2479 20.8877V13.7208H68.1613ZM82.3084 22.4072H79.2012V5.85083H82.3084V11.8837L83.9187 10.9538H86.8898L89.5206 12.4734V22.4072H86.4135V13.6074H82.3084V22.4072ZM100.351 13.7208H96.45V22.4072H93.3428V11.0672H95.9057L96.45 11.9971L98.0603 11.0672H100.351V13.7208ZM103.033 21.0011V11.0672H106.14V19.8671H110.018V11.0672H113.125V22.5206H110.562L110.018 21.5907L108.408 22.5206H105.663L103.033 21.0011Z" fill="#D8D8D8"/>
<rect x="0.671875" y="3.54395" width="18.4275" height="21.2625" rx="1.4175" fill="#262626"/>
<path d="M12.3631 10.6313L14.8438 13.7321L12.3631 16.8329" stroke="#FFC117" stroke-width="1.701"/>
<path d="M7.4025 10.6313L4.92188 13.7321L7.4025 16.8329" stroke="#FFC117" stroke-width="1.701"/>
</svg>
