<svg width="32" height="32" viewBox="0 0 32 32" fill="none" xmlns="http://www.w3.org/2000/svg">
<circle cx="16" cy="16" r="16" fill="#FAFAFA"/>
<path d="M25.9985 14.5C25.9985 20.299 21.7452 25 16.4985 25C11.2518 25 6.9985 20.299 6.9985 14.5C6.9985 11.7628 5.44614 8.86904 6.99854 7C8.73505 4.90929 13.7283 4 16.4985 4C21.7452 4 25.9985 8.70101 25.9985 14.5Z" fill="#737373"/>
<path d="M16.668 7C20.8101 7 24.168 10.3579 24.168 14.5C24.168 18.6421 20.8101 22 16.668 22C12.5258 22 9.16797 18.6421 9.16797 14.5C9.16797 10.3579 12.5258 7 16.668 7Z" fill="#E5E5E5"/>
<path d="M21.6973 20.0469C24.6015 21.5165 26.7003 24.2186 27.2119 27.4131C24.3249 30.2493 20.3678 32 16.001 32C12.2218 32 8.74936 30.689 6.01172 28.498C6.17558 24.8443 8.39942 21.6943 11.6152 20.0576C12.9463 21.2644 14.7131 22 16.6514 22C18.5949 21.9999 20.365 21.2596 21.6973 20.0469Z" fill="#737373"/>
<ellipse cx="14.65" cy="14.75" rx="0.65" ry="0.75" fill="#6E747B"/>
<ellipse cx="18.65" cy="14.75" rx="0.65" ry="0.75" fill="#6E747B"/>
<circle cx="16" cy="16" r="16" fill="#FFC117"/>
<path d="M6.49121 9.5H25.5088C26.263 9.50013 26.8915 10.058 26.9941 10.79L27.0068 10.9385L27.415 20.9385C27.4498 21.7901 26.7693 22.4998 25.917 22.5H6.08301C5.28397 22.4998 4.63521 21.8763 4.58594 21.0967L4.58496 20.9385L4.99316 10.9385C5.02616 10.1348 5.68682 9.50013 6.49121 9.5Z" fill="white" stroke="#262626"/>
<path d="M10 19H22.5" stroke="#262626" stroke-width="1.8" stroke-linecap="round"/>
<rect x="10.3984" y="14.6504" width="1.6" height="1.6" rx="0.16" fill="#262626"/>
<rect x="12" y="12.25" width="1.6" height="1.6" rx="0.16" fill="#262626"/>
<rect x="15.1992" y="12.25" width="1.6" height="1.6" rx="0.16" fill="#262626"/>
<rect x="18.3984" y="12.25" width="1.6" height="1.6" rx="0.16" fill="#262626"/>
<rect x="16.7969" y="14.6504" width="1.6" height="1.6" rx="0.16" fill="#262626"/>
<rect x="13.5977" y="14.6504" width="1.6" height="1.6" rx="0.16" fill="#262626"/>
<rect x="20" y="14.6504" width="1.6" height="1.6" rx="0.16" fill="#262626"/>
</svg>
