<svg width="24" height="24" viewBox="0 0 24 24" fill="none" xmlns="http://www.w3.org/2000/svg">
<g clip-path="url(#clip0_4711_52359)">
<path fill-rule="evenodd" clip-rule="evenodd" d="M9.41041 3.51556C9.6008 3.95075 9.40236 4.45788 8.96718 4.64827L1.83735 7.76757V20.1893L7.7809 17.4156C8.21135 17.2147 8.72313 17.4008 8.92401 17.8313C9.12488 18.2617 8.93878 18.7735 8.50833 18.9744L1.34099 22.3191C1.07461 22.4435 0.763196 22.4231 0.515255 22.2652C0.267313 22.1073 0.117188 21.8337 0.117188 21.5398V7.20506C0.117188 6.86335 0.319473 6.55405 0.632532 6.41709L8.2777 3.07233C8.71289 2.88194 9.22002 3.08038 9.41041 3.51556Z" fill="#F24744"/>
<circle cx="3.84237" cy="13.4166" r="0.955646" fill="#F24744"/>
<path d="M17.2227 3C17.6976 3.00002 18.083 3.38535 18.083 3.86035V9H16.3623V4.71973H9.48145V17.335H16.3623V13H18.083V18.1943C18.083 18.6693 17.6976 19.0547 17.2227 19.0547H8.62207C8.14706 19.0547 7.76172 18.6693 7.76172 18.1943V3.86035C7.76172 3.38534 8.14706 3 8.62207 3H17.2227Z" fill="#F24744"/>
<path d="M16 10.8226H23.1673M23.1673 10.8226L19.3448 7M23.1673 10.8226L19.3448 14.6452" stroke="#F24744" stroke-width="1.72016" stroke-linecap="round" stroke-linejoin="round"/>
</g>
<defs>
<clipPath id="clip0_4711_52359">
<rect width="24" height="24" fill="white"/>
</clipPath>
</defs>
</svg>
