<svg width="29" height="28" viewBox="0 0 29 28" fill="none" xmlns="http://www.w3.org/2000/svg">
<g clip-path="url(#clip0_4839_23781)">
<path fill-rule="evenodd" clip-rule="evenodd" d="M23.689 14.2194C23.6898 13.559 23.63 12.8999 23.5104 12.25H14.2578V15.9731H19.5438C19.4341 16.5613 19.2039 17.1217 18.8671 17.6204C18.5303 18.1191 18.0938 18.5458 17.5841 18.8746V21.2902H20.7577C22.6147 19.6145 23.6862 17.1464 23.6862 14.2176L23.689 14.2194Z" fill="#3E82F1"/>
<path fill-rule="evenodd" clip-rule="evenodd" d="M14.2614 23.6242C16.9132 23.6242 19.1366 22.7628 20.7613 21.293L17.5877 18.8775C16.7078 19.4551 15.5827 19.7969 14.2614 19.7969C11.703 19.7969 9.53794 18.1031 8.76627 15.8281H5.48438V18.3226C6.30192 19.9168 7.55571 21.257 9.10565 22.1932C10.6556 23.1294 12.4407 23.6249 14.2614 23.6242Z" fill="#32A753"/>
<path fill-rule="evenodd" clip-rule="evenodd" d="M8.76395 15.8271C8.35314 14.6414 8.35314 13.3559 8.76395 12.1702V9.67578H5.48206C4.79518 11.0174 4.4375 12.4976 4.4375 13.9986C4.4375 15.4996 4.79518 16.9799 5.48206 18.3215L8.76395 15.8271Z" fill="#F9BB00"/>
<path fill-rule="evenodd" clip-rule="evenodd" d="M14.2595 8.20233C15.702 8.20233 16.9964 8.68834 18.0142 9.64222L20.8307 6.88122C19.1301 5.32798 16.9067 4.375 14.2614 4.375C12.4406 4.37434 10.6556 4.8698 9.10565 5.80603C7.55571 6.74226 6.30192 8.08239 5.48438 9.67668L8.76627 12.1711C9.53793 9.89611 11.703 8.20233 14.2614 8.20233H14.2595Z" fill="#E74133"/>
</g>
<defs>
<clipPath id="clip0_4839_23781">
<rect width="19.25" height="19.25" fill="white" transform="translate(4.4375 4.375)"/>
</clipPath>
</defs>
</svg>
