<svg width="51" height="21" viewBox="0 0 51 21" fill="none" xmlns="http://www.w3.org/2000/svg">
<rect width="51" height="21" rx="10.5" fill="#262626"/>
<path d="M11.0796 8.0948L11.4765 12.7256C11.4898 12.8808 11.6196 13 11.7754 13H18.2246C18.3804 13 18.5102 12.8808 18.5235 12.7256L18.9204 8.0948C18.9453 7.80445 18.5834 7.65268 18.3938 7.87394L17.277 9.17678C17.142 9.3343 16.8917 9.31051 16.7888 9.13039L15.2605 6.45583C15.1453 6.25428 14.8547 6.25428 14.7395 6.45583L13.2112 9.13039C13.1083 9.31051 12.858 9.3343 12.723 9.17678L11.6062 7.87394C11.4166 7.65268 11.0547 7.80445 11.0796 8.0948Z" fill="#FFC117"/>
<path d="M29.3203 15.1367C27.0234 15.1367 25.6836 13.291 25.6836 10.0508C25.6836 6.83789 27.0508 4.96484 29.3203 4.96484C31.5898 4.96484 32.957 6.83789 32.957 10.0508C32.957 13.291 31.6035 15.1367 29.3203 15.1367ZM29.3203 13.8379C30.6602 13.8379 31.4531 12.5254 31.4531 10.0508C31.4531 7.58984 30.6465 6.23633 29.3203 6.23633C27.9941 6.23633 27.1875 7.58984 27.1875 10.0508C27.1875 12.5254 27.9805 13.8379 29.3203 13.8379ZM38.2754 5.10156V15H36.7578V6.60547H36.7031L34.3379 8.15039V6.71484L36.7988 5.10156H38.2754Z" fill="#FFC117"/>
</svg>
