<svg width="51" height="21" viewBox="0 0 51 21" fill="none" xmlns="http://www.w3.org/2000/svg">
<rect width="51" height="21" rx="10.5" fill="#262626"/>
<path d="M21.8623 15.1367C19.5654 15.1367 18.2256 13.291 18.2256 10.0508C18.2256 6.83789 19.5928 4.96484 21.8623 4.96484C24.1318 4.96484 25.499 6.83789 25.499 10.0508C25.499 13.291 24.1455 15.1367 21.8623 15.1367ZM21.8623 13.8379C23.2021 13.8379 23.9951 12.5254 23.9951 10.0508C23.9951 7.58984 23.1885 6.23633 21.8623 6.23633C20.5361 6.23633 19.7295 7.58984 19.7295 10.0508C19.7295 12.5254 20.5225 13.8379 21.8623 13.8379ZM30.8174 5.10156V15H29.2998V6.60547H29.2451L26.8799 8.15039V6.71484L29.3408 5.10156H30.8174Z" fill="#F1F2F5"/>
</svg>
