<svg width="51" height="21" viewBox="0 0 51 21" fill="none" xmlns="http://www.w3.org/2000/svg">
<rect width="51" height="21" rx="10.5" fill="#262626"/>
<path d="M21.3369 15.1367C19.04 15.1367 17.7002 13.291 17.7002 10.0508C17.7002 6.83789 19.0674 4.96484 21.3369 4.96484C23.6064 4.96484 24.9736 6.83789 24.9736 10.0508C24.9736 13.291 23.6201 15.1367 21.3369 15.1367ZM21.3369 13.8379C22.6768 13.8379 23.4697 12.5254 23.4697 10.0508C23.4697 7.58984 22.6631 6.23633 21.3369 6.23633C20.0107 6.23633 19.2041 7.58984 19.2041 10.0508C19.2041 12.5254 19.9971 13.8379 21.3369 13.8379ZM26.5322 15V13.9062L29.9639 10.4473C31.0439 9.3125 31.5908 8.68359 31.5908 7.82227C31.5908 6.85156 30.7979 6.22266 29.7588 6.22266C28.665 6.22266 27.9541 6.91992 27.9541 7.97266H26.5322C26.5186 6.16797 27.8994 4.96484 29.7861 4.96484C31.7002 4.96484 33.0127 6.16797 33.0264 7.78125C33.0127 8.88867 32.4932 9.76367 30.6338 11.5957L28.624 13.6328V13.7148H33.1904V15H26.5322Z" fill="#FFC117"/>
</svg>
