<svg width="24" height="20" viewBox="0 0 24 20" fill="none" xmlns="http://www.w3.org/2000/svg">
<path fill-rule="evenodd" clip-rule="evenodd" d="M9.41236 0.515562C9.60276 0.950746 9.40431 1.45788 8.96913 1.64827L1.8393 4.76757V17.1893L7.78285 14.4156C8.2133 14.2147 8.72509 14.4008 8.92596 14.8313C9.12684 15.2617 8.94073 15.7735 8.51029 15.9744L1.34294 19.3191C1.07656 19.4435 0.765149 19.4231 0.517208 19.2652C0.269266 19.1073 0.119141 18.8337 0.119141 18.5398V4.20506C0.119141 3.86335 0.321427 3.55405 0.634485 3.41709L8.27966 0.0723289C8.71484 -0.118064 9.22197 0.0803782 9.41236 0.515562Z" fill="#F24744"/>
<circle cx="3.84627" cy="10.4169" r="0.955646" fill="#F24744"/>
<path fill-rule="evenodd" clip-rule="evenodd" d="M8.62375 0C8.14874 0 7.76367 0.385072 7.76367 0.860082V15.1948C7.76367 15.6698 8.14874 16.0549 8.62375 16.0549H17.2246C17.6996 16.0549 18.0847 15.6698 18.0847 15.1948V10H16.3645V14.3347H9.48384V1.72016H16.3645V6H18.0847V0.860082C18.0847 0.385072 17.6996 0 17.2246 0H8.62375Z" fill="#F24744"/>
<path d="M16 7.82259H23.1673M23.1673 7.82259L19.3448 4M23.1673 7.82259L19.3448 11.6452" stroke="#F24744" stroke-width="1.72016" stroke-linecap="round" stroke-linejoin="round"/>
</svg>
