<svg width="40" height="40" viewBox="0 0 40 40" fill="none" xmlns="http://www.w3.org/2000/svg">
<circle cx="20" cy="20" r="20" fill="#D4D4D4"/>
<path d="M20.0015 28.27C19.8027 28.2698 19.612 28.1907 19.4715 28.05L12.4715 21.05C12.2839 20.8571 12.2136 20.5787 12.2868 20.3198C12.3601 20.0609 12.566 19.8608 12.8268 19.7948C13.0877 19.7289 13.3639 19.8071 13.5515 20L20.0015 26.45L26.4515 20C26.6385 19.7993 26.9201 19.7168 27.1858 19.7846C27.4515 19.8525 27.659 20.06 27.7269 20.3257C27.7948 20.5914 27.7122 20.873 27.5115 21.06L20.5115 28.06C20.3744 28.1922 20.192 28.2673 20.0015 28.27Z" fill="#FAFAFA"/>
<path d="M20.0015 28.26C19.5896 28.2546 19.2569 27.922 19.2515 27.51V12.51C19.2515 12.2421 19.3945 11.9945 19.6265 11.8605C19.8586 11.7265 20.1445 11.7265 20.3765 11.8605C20.6086 11.9945 20.7515 12.2421 20.7515 12.51V27.51C20.7461 27.922 20.4135 28.2546 20.0015 28.26Z" fill="#FAFAFA"/>
<path d="M20.0015 29C19.6038 28.9996 19.2225 28.8414 18.9415 28.56L11.9415 21.56C11.3561 20.9718 11.3583 20.0204 11.9465 19.435C12.5347 18.8496 13.4861 18.8518 14.0715 19.44L20.0015 25.39L25.9215 19.46C26.5069 18.8718 27.4583 18.8696 28.0465 19.455C28.6347 20.0404 28.6369 20.9918 28.0515 21.58L21.0515 28.58C20.7697 28.8516 20.3929 29.0023 20.0015 29Z" fill="#FAFAFA"/>
<path d="M20.0015 29C19.1731 29 18.5015 28.3284 18.5015 27.5V12.5C18.5015 11.6716 19.1731 11 20.0015 11C20.8299 11 21.5015 11.6716 21.5015 12.5V27.5C21.5015 28.3284 20.8299 29 20.0015 29Z" fill="#FAFAFA"/>
</svg>
